Coordinates
version=1
nRows=54
nColumns=12
inDegrees=yes

Units are S.I. units (second, meters, Newtons, ...)
Angles are in degrees

endheader
time	SC_y	SC_z	SC_x	AC_y	AC_z	AC_x	GH_y	GH_z	GH_yy	EL_x	PS_y
       0.0              -14.55          29.52           29.8          67.75          3.957          10.74          89.51          59.99         -176.5          91.77          50.79
   0.02602              -14.55          29.51           29.8          67.75          3.955          10.74           89.5          59.99         -176.5          91.76          50.79
   0.05203              -14.56          29.51           29.8          67.75          3.952          10.74          89.48          59.99         -176.5          91.76          50.79
   0.07805              -14.56           29.5          29.81          67.75           3.95          10.74          89.47          59.99         -176.5          91.75          50.79
    0.1041              -14.56           29.5          29.81          67.75          3.947          10.74          89.45          59.99         -176.5          91.74          50.78
    0.1301              -14.56          29.49          29.81          67.75          3.945          10.73          89.43          59.99         -176.4          91.73          50.78
    0.1561              -14.57          29.49          29.82          67.75          3.942          10.73          89.41          59.99         -176.4          91.72          50.78
    0.1821              -14.57          29.48          29.82          67.75          3.938          10.73          89.39          59.99         -176.4          91.72          50.77
    0.2081              -14.57          29.47          29.82          67.75          3.935          10.72          89.37          59.99         -176.3          91.71          50.77
    0.2341              -14.58          29.46          29.83          67.75          3.931          10.72          89.34          59.99         -176.3           91.7          50.77
    0.2602              -14.58          29.46          29.83          67.75          3.927          10.72          89.32          59.99         -176.3          91.68          50.76
    0.2862              -14.59          29.45          29.84          67.75          3.923          10.71          89.29          59.98         -176.2          91.67          50.76
    0.3122              -14.59          29.44          29.84          67.74          3.919          10.71          89.26          59.98         -176.2          91.66          50.75
    0.3382              -14.59          29.43          29.85          67.74          3.914           10.7          89.23          59.98         -176.1          91.65          50.75
    0.3642               -14.6          29.41          29.85          67.74          3.908           10.7          89.19          59.98         -176.1          91.63          50.74
    0.3902              -14.61           29.4          29.86          67.74          3.903          10.69          89.16          59.98         -176.0          91.62          50.73
    0.4163              -14.61          29.39          29.87          67.74          3.896          10.69          89.11          59.98         -175.9           91.6          50.73
    0.4423              -14.62          29.37          29.87          67.74           3.89          10.68          89.07          59.97         -175.9          91.58          50.72
    0.4683              -14.63          29.36          29.88          67.74          3.882          10.67          89.02          59.97         -175.8          91.56          50.71
    0.4943              -14.64          29.34          29.89          67.74          3.874          10.67          88.97          59.97         -175.7          91.53           50.7
    0.5203              -14.64          29.32           29.9          67.73          3.865          10.66          88.91          59.97         -175.6          91.51          50.69
    0.5463              -14.65           29.3          29.91          67.73          3.855          10.65          88.84          59.96         -175.5          91.48          50.68
    0.5724              -14.67          29.27          29.92          67.73          3.844          10.64          88.77          59.96         -175.4          91.45          50.67
    0.5984              -14.68          29.25          29.94          67.73          3.832          10.63          88.69          59.96         -175.3          91.42          50.66
    0.6244              -14.69          29.22          29.95          67.72          3.819          10.62           88.6          59.95         -175.2          91.38          50.64
    0.6504              -14.71          29.19          29.97          67.72          3.804           10.6          88.51          59.95         -175.0          91.34          50.63
    0.6764              -14.72          29.15          29.99          67.72          3.787          10.59           88.4          59.94         -174.9          91.29          50.61
    0.7024              -14.74          29.11          30.01          67.71          3.768          10.57          88.27          59.94         -174.7          91.24          50.59
    0.7285              -14.76          29.06          30.03          67.71          3.747          10.55          88.13          59.93         -174.5          91.18          50.56
    0.7545              -14.79          29.01          30.06          67.71          3.723          10.53          87.97          59.93         -174.2          91.11          50.54
    0.7805              -14.82          28.95          30.09           67.7          3.695           10.5          87.79          59.92         -173.9          91.03          50.51
    0.8065              -14.85          28.88          30.12          67.69          3.663          10.47          87.58          59.91         -173.6          90.94          50.47
    0.8325              -14.89           28.8          30.17          67.69          3.627          10.44          87.34           59.9         -173.3          90.84          50.43
    0.8585              -14.93          28.71          30.21          67.68          3.584           10.4          87.07          59.89         -172.8          90.72          50.39
    0.8846              -14.98           28.6          30.27          67.67          3.534          10.35          86.74          59.87         -172.3          90.58          50.33
    0.9106              -15.04          28.47          30.33          67.66          3.476          10.29          86.35          59.85         -171.8          90.42          50.27
    0.9366              -15.11          28.32          30.41          67.64          3.406          10.23           85.9          59.83         -171.1          90.22          50.19
    0.9626              -15.19          28.14           30.5          67.63          3.322          10.15          85.35          59.81         -170.2          89.99           50.1
    0.9886               -15.3          27.92          30.61          67.61          3.221          10.06          84.69          59.78         -169.2           89.7          49.99
     1.015              -15.42          27.65          30.75          67.58          3.098          9.939          83.87          59.74         -168.0          89.36          49.85
     1.041              -15.58          27.32          30.92          67.55          2.945          9.796          82.87           59.7         -166.5          88.93          49.68
     1.067              -15.77          26.91          31.13          67.51          2.755          9.618          81.63          59.64         -164.6          88.39          49.48
     1.093              -16.01          26.39           31.4          67.47          2.516          9.394          80.06          59.57         -162.2          87.72          49.21
     1.119              -16.32          25.73          31.74          67.41          2.211          9.108          78.06          59.49         -159.2          86.87          48.88
     1.145              -16.71          24.88          32.17          67.33          1.821          8.743           75.5          59.37         -155.3          85.77          48.45
     1.171              -17.22           23.8          32.72          67.23          1.321          8.274          72.22          59.23         -150.4          84.37           47.9
     1.197              -17.87          22.41          33.43           67.1         0.6824          7.675          68.03          59.04         -144.0          82.57           47.2
     1.223              -18.68          20.67          34.32          66.94        -0.1209          6.922          62.76          58.81         -136.0          80.32          46.32
     1.249              -19.67          18.55          35.41          66.75           -1.1          6.004          56.34          58.52         -126.3          77.57          45.25
     1.275              -20.82          16.08          36.67          66.53         -2.234          4.941           48.9          58.19         -115.0          74.39          44.01
     1.301              -22.07          13.42          38.03          66.28         -3.463          3.789          40.84          57.84         -102.8          70.94          42.66
     1.327              -23.31          10.75          39.39          66.04         -4.692          2.637          32.78          57.48         -90.59          67.49          41.31
     1.353              -24.46          8.289          40.65          65.81         -5.826          1.573          25.34          57.15         -79.31           64.3          40.07
     1.379              -25.45          6.165          41.74          65.62         -6.805         0.6556          18.92          56.86         -69.58          61.55           39.0
